<?xml version="1.0" encoding="utf-8"?>
<!-- Generator: Adobe Illustrator 26.1.0, SVG Export Plug-In . SVG Version: 6.00 Build 0)  -->
<svg version="1.1" id="Layer_1" xmlns="http://www.w3.org/2000/svg" xmlns:xlink="http://www.w3.org/1999/xlink" x="0px" y="0px"
	 viewBox="0 0 32 32" style="enable-background:new 0 0 32 32;" xml:space="preserve">
<style type="text/css">
	.st0{fill:#FAFAFA;}
	.st1{fill:#249DCB;}
	.st2{fill:#E30A7D;}
	.st3{fill:url(#SVGID_1_);}
</style>
<desc>Created with Sketch.</desc>
<g>
	<circle id="Oval" class="st0" cx="16" cy="16" r="16"/>
	<g>
		<circle class="st1" cx="6.4" cy="21.5" r="0.8"/>
		<circle class="st2" cx="25.6" cy="10.7" r="0.8"/>
		<g>
			
				<linearGradient id="SVGID_1_" gradientUnits="userSpaceOnUse" x1="102.8894" y1="1112.9738" x2="128.0419" y2="1099.6941" gradientTransform="matrix(0.7071 -0.7071 -0.7071 -0.7071 717.7317 878.8062)">
				<stop  offset="0.2045" style="stop-color:#249DCB"/>
				<stop  offset="0.8137" style="stop-color:#E3097D"/>
			</linearGradient>
			<path class="st3" d="M25.2,7.2L25.2,7.2c-0.4-0.4-1.1-0.4-1.5,0l-1.6,1.6l-1.5,1.5c-0.4,0.4-1.1,0.4-1.5,0l0,0
				c-0.4-0.4-0.4-1.1,0-1.5L19.9,8c0.4-0.4,0.4-1.1,0-1.5l0,0c-0.4-0.4-1.1-0.4-1.5,0L8,16.9c-0.4,0.4-0.4,1.1,0,1.5l0,0
				c0.4,0.4,1.1,0.4,1.5,0l1.2-1.2c0.4-0.4,1.1-0.4,1.5,0l0,0c0.4,0.4,0.4,1.1,0,1.5L7,24c-0.4,0.4-0.4,1.1,0,1.5l0,0
				c0.4,0.4,1.1,0.4,1.5,0l1.8-1.8c0.4-0.4,1.1-0.4,1.5,0l0,0c0.4,0.4,1.1,0.4,1.5,0l1.6-1.6c0.4-0.4,1.1-0.4,1.5,0l0,0
				c0.4,0.4,1.1,0.4,1.5,0l7.4-7.4c0.4-0.4,0.4-1.1,0-1.5l0,0c-0.4-0.4-1.1-0.4-1.5,0l-0.1,0.1l-1,1c-0.4,0.4-1.1,0.4-1.5,0l0,0
				c-0.4-0.4-0.4-1.1,0-1.5l1.3-1.3l2.8-2.8C25.6,8.3,25.6,7.6,25.2,7.2z"/>
		</g>
	</g>
</g>
</svg>
