<?xml version="1.0" standalone="no"?>
<!DOCTYPE svg PUBLIC "-//W3C//DTD SVG 20010904//EN"
 "http://www.w3.org/TR/2001/REC-SVG-20010904/DTD/svg10.dtd">
<svg version="1.0" xmlns="http://www.w3.org/2000/svg"
 width="14.400000pt" height="14.400000pt" viewBox="0 0 14.400000 14.400000"
 preserveAspectRatio="xMidYMid meet">
<metadata>
Created by potrace 1.16, written by Peter Selinger 2001-2019
</metadata>
<g transform="translate(0.000000,14.400000) scale(0.003692,-0.003789)"
fill="#000000" stroke="none">
<path d="M2149 3388 c-107 -116 -199 -216 -204 -222 -115 -123 -177 -198 -169
-205 5 -4 45 -16 89 -25 43 -9 81 -19 84 -22 18 -17 -131 -223 -240 -332 -196
-198 -450 -335 -728 -394 -78 -16 -151 -22 -381 -27 l-285 -6 0 -220 0 -220
275 1 c240 0 292 3 405 23 579 102 1085 468 1366 988 25 48 50 83 59 83 8 0
53 -9 99 -20 47 -11 88 -17 92 -13 5 5 -3 44 -17 88 -54 171 -167 535 -196
633 -17 57 -36 102 -43 102 -7 0 -99 -95 -206 -212z"/>
<path d="M2598 2318 l-3 -163 -267 -5 -267 -5 -58 -51 c-32 -28 -91 -75 -130
-104 -40 -29 -73 -54 -73 -55 0 -1 33 -26 73 -55 39 -29 98 -76 130 -104 l58
-51 267 -5 267 -5 3 -162 c1 -90 5 -163 8 -163 3 0 70 37 147 81 78 45 157 90
175 100 17 11 47 27 65 38 17 10 82 46 142 81 132 75 234 134 295 169 25 14
62 35 83 46 20 11 37 24 37 30 0 6 -21 22 -47 36 -27 15 -79 44 -118 66 -38
22 -92 52 -120 68 -27 15 -93 53 -145 83 -52 30 -115 66 -140 80 -25 13 -81
46 -125 72 -108 64 -243 140 -249 140 -3 0 -7 -73 -8 -162z"/>
<path d="M1610 1828 c-100 -52 -276 -121 -380 -148 -47 -13 -89 -26 -93 -30
-4 -4 20 -17 55 -30 94 -33 259 -121 350 -187 142 -102 306 -284 389 -430 13
-23 21 -44 18 -47 -3 -3 -43 -14 -89 -24 -47 -10 -85 -23 -85 -29 0 -9 297
-341 512 -573 23 -25 43 -48 43 -52 0 -5 9 -8 19 -8 15 0 23 13 36 57 20 72
55 187 156 508 43 137 75 253 70 258 -4 4 -33 1 -64 -7 -31 -8 -75 -18 -99
-21 l-43 -7 -45 84 c-142 268 -369 521 -615 684 l-60 40 -75 -38z"/>
</g>
</svg>
