<svg width="20" height="20" viewBox="0 0 20 20" xmlns="http://www.w3.org/2000/svg">
    <g fill="none" fill-rule="evenodd">
        <path opacity=".28" d="M0 0h20v20H0z"/>
        <path d="m15.525 12.35 1.896 1.896h-3.43c-.416 0-.808-.204-1.07-.559L10.196 10l2.729-3.688a1.334 1.334 0 0 1 1.07-.558h3.43L15.529 7.65l.709.708 3.104-3.104-3.104-3.104-.709.708 1.896 1.896h-3.43c-.737 0-1.42.35-1.874.963L9.575 9.158l-2.55-3.45a2.322 2.322 0 0 0-1.875-.962H1.37v1h3.776c.417 0 .808.204 1.07.558L8.95 10l-2.733 3.696a1.334 1.334 0 0 1-1.071.558H1.37v1h3.775c.737 0 1.42-.35 1.875-.962l2.55-3.45 2.546 3.441a2.322 2.322 0 0 0 1.875.963h3.429l-1.896 1.896.708.708 3.104-3.104-3.104-3.104-.708.708z" fill="#A89CB3" fill-rule="nonzero"/>
    </g>
</svg>
